<svg width="96" height="96" viewBox="0 0 96 96" fill="none" xmlns="http://www.w3.org/2000/svg">
<g clip-path="url(#clip0_246_7)">
<circle cx="48" cy="48" r="48" fill="#FCB72B"/>
<path d="M48 46.5C46.0109 46.5 44.1032 45.7098 42.6967 44.3033C41.2902 42.8968 40.5 40.9891 40.5 39C40.5 37.0109 41.2902 35.1032 42.6967 33.6967C44.1032 32.2902 46.0109 31.5 48 31.5C49.9891 31.5 51.8968 32.2902 53.3033 33.6967C54.7098 35.1032 55.5 37.0109 55.5 39C55.5 39.9849 55.306 40.9602 54.9291 41.8701C54.5522 42.7801 53.9997 43.6069 53.3033 44.3033C52.6069 44.9997 51.7801 45.5522 50.8701 45.9291C49.9602 46.306 48.9849 46.5 48 46.5ZM48 18C42.4305 18 37.089 20.2125 33.1508 24.1508C29.2125 28.089 27 33.4305 27 39C27 54.75 48 78 48 78C48 78 69 54.75 69 39C69 33.4305 66.7875 28.089 62.8492 24.1508C58.911 20.2125 53.5695 18 48 18Z" fill="#495567"/>
</g>
<defs>
<clipPath id="clip0_246_7">
<rect width="96" height="96" fill="white"/>
</clipPath>
</defs>
</svg>
