<?xml version="1.0" encoding="UTF-8"?><svg id="Layer_2" xmlns="http://www.w3.org/2000/svg" xmlns:xlink="http://www.w3.org/1999/xlink" viewBox="1100 400 1000 800"><defs><style>.cls-1{fill:url(#linear-gradient);}.cls-2{fill:#e64d4e;}.cls-3{fill:#ff9d00;}.cls-4{fill:#f2dad4;}.cls-5{fill:#0f468c;}.cls-6{fill:#192b59;}.cls-7{fill:#176ad4;}.cls-8{fill:#4e9cff;}.cls-9{fill:url(#linear-gradient-8);}.cls-10{fill:url(#linear-gradient-9);}.cls-11{fill:url(#linear-gradient-3);}.cls-12{fill:url(#linear-gradient-4);}.cls-13{fill:url(#linear-gradient-2);}.cls-14{fill:url(#linear-gradient-6);}.cls-15{fill:url(#linear-gradient-7);}.cls-16{fill:url(#linear-gradient-5);}.cls-17{fill:url(#linear-gradient-14);}.cls-18{fill:url(#linear-gradient-18);}.cls-19{fill:url(#linear-gradient-15);}.cls-20{fill:url(#linear-gradient-19);}.cls-21{fill:url(#linear-gradient-16);}.cls-22{fill:url(#linear-gradient-17);}.cls-23{fill:url(#linear-gradient-13);}.cls-24{fill:url(#linear-gradient-12);}.cls-25{fill:url(#linear-gradient-10);}.cls-26{fill:url(#linear-gradient-11);}</style><linearGradient id="linear-gradient" x1="1247.69" y1="758.43" x2="1473.38" y2="758.43" gradientUnits="userSpaceOnUse"><stop offset="0" stop-color="#1d0633"/><stop offset="1" stop-color="#192b59"/></linearGradient><linearGradient id="linear-gradient-2" x1="1260.83" y1="846.09" x2="1168.24" y2="649.98" gradientUnits="userSpaceOnUse"><stop offset="0" stop-color="#4e9cff"/><stop offset=".75" stop-color="#176ad4"/></linearGradient><linearGradient id="linear-gradient-3" x1="5896.93" y1="-1950.35" x2="5921.67" y2="-1928.76" gradientTransform="translate(5979 -3263.62) rotate(122.58) scale(1 -1)" gradientUnits="userSpaceOnUse"><stop offset="0" stop-color="#f9cec5"/><stop offset="1" stop-color="#f2dad4"/></linearGradient><linearGradient id="linear-gradient-4" x1="5840.84" y1="-1953.81" x2="5865.29" y2="-1962.34" gradientTransform="translate(5979 -3263.62) rotate(122.58) scale(1 -1)" gradientUnits="userSpaceOnUse"><stop offset="0" stop-color="#4e9cff"/><stop offset="1" stop-color="#176ad4"/></linearGradient><linearGradient id="linear-gradient-5" x1="5870.41" y1="-1988.4" x2="5906.06" y2="-1977.72" xlink:href="#linear-gradient-4"/><linearGradient id="linear-gradient-6" x1="1401.16" y1="829.16" x2="1372.71" y2="768.89" xlink:href="#linear-gradient-2"/><linearGradient id="linear-gradient-7" x1="1384.53" y1="757.8" x2="1397.34" y2="826.17" gradientUnits="userSpaceOnUse"><stop offset="0" stop-color="#4e9cff"/><stop offset=".57" stop-color="#176ad4"/></linearGradient><linearGradient id="linear-gradient-8" x1="1428.95" y1="669.91" x2="1507.36" y2="663.69" gradientUnits="userSpaceOnUse"><stop offset="0" stop-color="#4e9cff"/><stop offset=".8" stop-color="#176ad4"/></linearGradient><linearGradient id="linear-gradient-9" x1="1430.73" y1="988.7" x2="1491.45" y2="988.7" gradientTransform="translate(-343.79 813.48) rotate(-27.37)" xlink:href="#linear-gradient-4"/><linearGradient id="linear-gradient-10" x1="1931.99" y1="1024.75" x2="2025.62" y2="1077.45" gradientTransform="translate(1230.01 -1291.58) rotate(45)" gradientUnits="userSpaceOnUse"><stop offset="0" stop-color="#e6fbfc"/><stop offset=".26" stop-color="#d9f2f6"/><stop offset=".73" stop-color="#b9dae9"/><stop offset="1" stop-color="#a4cbe0"/></linearGradient><linearGradient id="linear-gradient-11" x1="1975.5" y1="1059.57" x2="1906.24" y2="960.82" gradientTransform="translate(-343.79 813.48) rotate(-27.37)" xlink:href="#linear-gradient-10"/><linearGradient id="linear-gradient-12" x1="1485.75" y1="1024.76" x2="1646.67" y2="1115.33" gradientTransform="translate(1149.27 -770.91) rotate(45)" xlink:href="#linear-gradient-10"/><linearGradient id="linear-gradient-13" x1="1577.47" y1="1042.17" x2="1709.37" y2="1042.17" gradientTransform="translate(-343.79 813.48) rotate(-27.37)" xlink:href="#linear-gradient-4"/><linearGradient id="linear-gradient-14" x1="2029.2" y1="981.69" x2="1887.31" y2="968.86" gradientTransform="translate(-343.79 813.48) rotate(-27.37)" gradientUnits="userSpaceOnUse"><stop offset="0" stop-color="#f2c43c"/><stop offset="1" stop-color="#ffac00"/></linearGradient><linearGradient id="linear-gradient-15" x1="2023.58" y1="896.67" x2="1519.24" y2="896.67" gradientTransform="translate(-343.79 813.48) rotate(-27.37)" gradientUnits="userSpaceOnUse"><stop offset="0" stop-color="#f2c43c"/><stop offset=".76" stop-color="#ffac00"/></linearGradient><linearGradient id="linear-gradient-16" x1="1631.74" y1="874.81" x2="1389.85" y2="852.95" gradientTransform="translate(-343.79 813.48) rotate(-27.37)" gradientUnits="userSpaceOnUse"><stop offset="0" stop-color="#520101"/><stop offset="1" stop-color="#ae6161"/></linearGradient><linearGradient id="linear-gradient-17" x1="1798.95" y1="764.48" x2="1768.91" y2="761.77" xlink:href="#linear-gradient-16"/><linearGradient id="linear-gradient-18" x1="1503.66" y1="909.27" x2="1435.09" y2="927.8" gradientTransform="translate(-343.79 813.48) rotate(-27.37)" xlink:href="#linear-gradient-10"/><linearGradient id="linear-gradient-19" x1="1664.41" y1="946.94" x2="1423.9" y2="946.94" xlink:href="#linear-gradient-14"/></defs><path class="cls-1" d="m1452.08,680.62c-6.41,6.93-33.09,17.96-44.38,21.55-11.29,3.59-34.63,12.31-44.63,15.9-10,3.59-43.61,18.21-51.81,22.32-8.21,4.1-53.35,25.91-62.07,36.17-8.72,10.26,23.43,59.69,28.09,59.69s32.19-37.12,45.01-45.33,33.09-37.45,42.58-41.04c9.49-3.59,40.53-8.26,56.69-21.45,16.16-13.18,48.99-29.6,51.56-32.42,2.56-2.82-14.11-15.39-14.11-15.39h-6.93Z"/><path class="cls-4" d="m1214.58,622.86c1.65-4.45,10.95-22.15,13.62-29.91,2.67-7.76,20.62-44.04,23.55-49,2.93-4.96,8.27-13.11,8.4-15.53.13-2.42.76-15.27,0-17.69s-5.09-10.18-7.26-11.07c0,0,.64-2.29,4.2-1.27,3.56,1.02,5.6,5.35,5.6,5.35,0,0-1.4-14.13-1.4-17.18s1.27-5.35,2.42-5.47c1.15-.13,2.67,10.82,2.29,13.87-.38,3.05,1.27,3.44,1.27,3.44,0,0,3.05-7.26,4.58-9.67,1.53-2.42,4.71-7.38,6.87-5.98,2.16,1.4-5.22,13.62-5.98,16.42-.76,2.8.64,3.69,1.4,3.95.76.25,7.26-5.73,10.06-7.89,2.8-2.16,5.09-4.96,6.62-3.44,1.53,1.53-2.16,4.96-3.82,6.49-1.65,1.53-7.13,7.76-6.49,9.04.64,1.27,7.51-3.56,7.51-3.56,0,0,3.44-2.42,4.84-1.15,1.4,1.27-5.47,6.75-7,7.51-1.53.76-4.84,3.56-4.84,6.62s-2.04,10.69-4.2,12.6c-2.16,1.91-5.35,7.38-5.73,11.46-.38,4.07-7,36.79-12.6,47.35-5.6,10.56-11.71,21.64-13.36,27.11-1.65,5.47-9.67,27.24-15.02,29.66-5.35,2.42-15.53-22.02-15.53-22.02Z"/><path class="cls-13" d="m1150.49,681.29c-8.5,11.69-13.21,29.35-9.78,49.4,3.42,20.05,18.34,45.73,28.37,56.49,10.03,10.76,32.53,31.3,37.17,37.91,4.65,6.6,9,13.01,16.3,11.15,6.15-1.57,27.97-57.62,32.61-62.27s9.05-10.27,6.85-11.74c-2.2-1.47-23.72-19.32-26.9-28.86-3.18-9.54-18.83-51.85-16.63-62.85,2.2-11.01,14.41-21.88,14.41-26.53s-1.44-7.71-6.09-12.35-10.03-11.49-12.72-11.01c-2.69.49-57.72,52.58-63.58,60.65Z"/><path class="cls-4" d="m1278.94,640.91c1.86.25-.96,3.5-2.39,4.14-1.44.64-7.37,5.24-9.47,5.24s-3.25.1-3.44-1.82c-.19-1.91,11.1-8.13,15.31-7.56Z"/><path class="cls-4" d="m1262.59,653.83c-1.88,2.42,3.45,2.76,5.54,2.58,2.09-.18,6.6-1.82,7.18-2.2.57-.38,2.3-3.16,1.44-3.92-.86-.77-11.84.57-14.15,3.54Z"/><path class="cls-4" d="m1262.59,660.62c-.15,3.1,7.16,3.64,8.6,3.35,1.44-.29,2.3-1.82,2.39-2.58.1-.77-1.91-1.72-3.54-2.01-1.63-.29-7.34-.96-7.45,1.24Z"/><path class="cls-2" d="m1146.02,638.22c4.06,5.67,10.88,14.64,8.68,18.1-2.21,3.46-4.92,15.31.49,19.28,5.41,3.97,4.71,8.43,3.56,10.29-1.16,1.86-10.47,2.02-18.67-2.96-8.2-4.99-19.59-17.58-19.03-24.47.56-6.89,24.98-20.24,24.98-20.24Z"/><path class="cls-11" d="m1178.63,669.77c2.25,5.12,8.3,17.36,8.9,18.57.6,1.21-12.13,5.96-19.9,5.96s-13.65-4.92-14.25-5.71c-.59-.79-1.32-9.02-3.27-10.48-1.95-1.46-10.86-8.8-10.38-10.42.48-1.61,38.9,2.08,38.9,2.08Z"/><path class="cls-4" d="m1163.6,628.17c2.51-.29,5.92,2.91,7.83,5.92.77,1.22,12.11,7.05,11.57,8.43-.54,1.39-2.29,6.84-1.05,8.68,1.25,1.84,9.57,11.83,7,15.03-2.57,3.2-12.2,9.34-17.42,9.11-5.22-.22-16.94-7.88-19.75-6.74-2.81,1.15-11.62,2.26-16.01-.74-4.4-3-8.6-5.83-5.25-10.48,3.35-4.65,9.24-4,11.49-3.04,2.25.96,4.86,3.01,6.1,1.22,1.24-1.79-.13-4.58-1.95-5.93-1.81-1.35-2.08-19.22,17.42-21.47Z"/><path class="cls-12" d="m1185.36,607.03c1.1,12.77-35.49,29.57-35.49,29.57l13.68-18.24s21.56-14.16,21.81-11.34Z"/><path class="cls-16" d="m1119.98,617.81c18.82-18.27,45.18-.33,45.25.55.07.88-1.68,12.95-20.39,28.74-18.71,15.78-22.35,17.08-23.78,16.37-1.44-.71-20.72-26.6-1.08-45.66Z"/><path class="cls-4" d="m1159.11,716.59c2.32,11.67,11.16,15.95,15.66,14.5s37.41-22.76,43.79-26.68,26.54-24.8,30.16-25.96,17.11-11.6,19.58-13.77,4.87-5.05,7.11-6.57,7.24-4.11,7.33-6.34c.09-2.23-.54-2.77-1.88-2.86-1.34-.09-9.2,8.04-10.63,7.33-1.43-.71-3.93-8.67-1.79-10.63,2.14-1.97,8.94-7.95,9.29-10.1.36-2.14.54-3.66-1.07-3.66s-8.31,9.47-11.88,11.71c-3.57,2.23-10.81,9.47-14.12,12.51s-9.99,9.82-14.7,11.77c-4.7,1.95-22.05,7.3-29.67,11.35-7.62,4.05-17.51,10.54-21.24,13.46-3.73,2.92-13.78,8.59-17.03,9.57-3.24.97-10.02,8.78-8.9,14.39Z"/><path class="cls-6" d="m1239.52,845.18c23.92,4.91,45.7-13.5,46.32-17.48.61-3.99,4.29-40.79,9.51-39.57,5.21,1.23,10.81,9.55,14.42,10.74,14.07,4.64,55.21,8.59,59.2,9.51,3.99.92,7.97,2.45,7.97,2.45,0,0-3.07-11.66-3.07-15.64s.61-5.58-3.68-7.08c-4.29-1.5-21.47-6.72-27.61-10.71-6.13-3.99-24.23-10.43-30.37-15.95-6.13-5.52-19.69-16.56-29.48-16.56s-11.32,9.2-14.69,10.43c-3.37,1.23-41.72,31.29-50.61,57.05-8.9,25.77,22.08,32.82,22.08,32.82Z"/><path class="cls-14" d="m1386.43,760.95s-7.14-1.08-10.98,11.5c-4.01,13.16-3.18,37.43,1.08,40.64,4.48,3.38,14.45,12.3,14.45,12.3l-4.55-64.44Z"/><path class="cls-15" d="m1386.43,760.95c-8.1.52-10.71,21.43-7.84,34.49,2.87,13.07,5.75,9.93,6.53,16.99s3.4,15.42,11.5,13.59,9.41-15.68,6.79-19.08c-2.61-3.4-4.7-7.32-4.97-11.5-.26-4.18,4.7-11.76,2.87-16.99-1.83-5.23-6.79-18.03-14.9-17.51Z"/><path class="cls-9" d="m1463.34,630.4c-4.28,2.71.85,8.76,0,13.98-.85,5.23-5.37,22.74-7.77,26.69-2.4,3.95-5.44,7.07-3.5,9.54s5.19.63,8.02,2.89c2.82,2.26,7.58,7.99,7.01,10.4-.57,2.4-4.52,8.05-1.13,8.62,3.39.56,15.25,2.4,18.78-2.4,3.53-4.8-5.14-50.44-7.44-57.71-2.02-6.4-9.75-14.69-13.98-12.01Z"/><path class="cls-2" d="m1379.31,970.57c-.99,3.09-3.86,2-4.95,1.21-1.09-.79-5.76-3.53-4.82-6.18.93-2.65,6.65-24.59,11.73-31.02,5.08-6.42,12.03-12.01,13.2-12.03,1.18-.02,3.7.17,3.35,1.91-.35,1.75-18.52,46.09-18.52,46.09Z"/><path class="cls-5" d="m1399.3,1063.33s9.14-3.84,11.17-7.13,29.16-62.5,27.19-66.3c-1.97-3.8-27.29-2.83-27.29-2.83l-11.76,29.57.68,46.69Z"/><path class="cls-10" d="m1381.18,994.79c.13,2.68,1,3.26,3.91,3.58,2.91.32,12.05.29,11.85,2.33-.2,2.05-5.1,49.15-2.19,58.68,2.91,9.54,7.67.7,7.7-1.65.03-2.35-.73-34.15,4.48-46.34s12.95-19.15,12.95-19.15l-38.71,2.54Z"/><path class="cls-8" d="m1641.09,604.07s7.11-4.04,9.19-3.31c2.08.72,14.93,8.96,20.98,18.42,6.04,9.46,11.7,19.27,11.1,21.44-.59,2.17-2.27,4.02-2.79,4.6-.52.59-38.48-41.15-38.48-41.15Z"/><circle class="cls-6" cx="1881.97" cy="836.69" r="73.04" transform="translate(-35.39 84.63) rotate(-2.55)"/><circle class="cls-8" cx="1881.97" cy="836.69" r="48.99" transform="translate(840.55 2613.56) rotate(-83.59)"/><circle class="cls-25" cx="1881.97" cy="836.69" r="39.22" transform="translate(514.62 2376.88) rotate(-72.37)"/><path class="cls-26" d="m1810.33,821.37l63.78,30.41s15.19,1.99,18.66-12.74c3.46-14.73-7.13-19.71-7.13-19.71l-68.22-33.04-7.09,35.08Z"/><path class="cls-3" d="m1613.74,826.52c-1.57,16.73-2.48,37.67,17.63,54.55,20.11,16.88,65.48-.17,76.24-5.74,10.76-5.57,34.79-12.76,32.74-42.24-2.05-29.47-5.96-66.04-27.31-84.63-21.35-18.59-68.02-52.67-64.36-59.16,3.66-6.49,25.69-.24,44.47,12.58,18.78,12.82,69.86,57.08,69.07,87.57-.78,30.5,11.7,75.95-34.06,97.43-45.76,21.48-79.55,53.54-105.9,29.09-26.35-24.46-42.42-47.91-39.92-65.35,2.5-17.44,12.78-34.03,12.78-34.03l18.62,9.93Z"/><polygon class="cls-7" points="1504.32 971.21 1533.26 992.96 1629.46 952.82 1614.99 930.75 1504.32 971.21"/><circle class="cls-6" cx="1485.72" cy="1041.83" r="73.04" transform="translate(-44.92 67.19) rotate(-2.55)"/><circle class="cls-8" cx="1485.72" cy="1041.83" r="48.99" transform="translate(179.52 2301.44) rotate(-79)"/><circle class="cls-24" cx="1485.72" cy="1041.83" r="39.22" transform="translate(42.86 2142.25) rotate(-72.37)"/><path class="cls-23" d="m1528.55,985.22c-5.99,4.23-2.02,10.23-.44,12.86,1.58,2.63,27.01,38.15,35.03,34.43,8.02-3.72,62.27-33.99,73.2-46.64,10.93-12.65,8.94-13.64,8.94-13.64l-34.42-24.09s-71.02,29.12-82.3,37.07Z"/><path class="cls-17" d="m1896.94,751.82c7.23,4.17-29.5,9.56-52.4,22.72-22.9,13.16-24.86,30.5-28.79,41.84-3.93,11.34-7.2,27.72-15.94,33.23-8.74,5.5-15.67,5.99-15.67,5.99,0,0-5.05-81.09.19-91.37,5.24-10.29,10.24-17.61,17.68-21.2,7.44-3.58,52.38-15.77,94.92,8.79Z"/><path class="cls-19" d="m1642.62,603.62c4.19-.3,38.44,38.45,36.95,41.61-1.49,3.15-18.57,1.35-17.85,10.53.71,9.17,39.29,2.11,95.94,39.05,56.66,36.95,55.33,33.45,50.44,40.17-4.89,6.72-16.29,15.93-15.42,53.02.87,37.09-2.41,109.02-27.58,124.75-25.17,15.73-57.28,21.55-77.05,39.89-19.77,18.34-31.73,32-41.68,26.38-9.95-5.62-15.21-11.38-22.73-7.49-7.51,3.89-21.51-3.15-27.5-7.92-5.99-4.77-7.97-11.4-15.99-8.08-8.01,3.32-136.17,36.33-164.9,39.13-28.73,2.8-36.91,4.13-36.18-1.41.73-5.53,19.41-64.03,26.02-76.84,6.61-12.81,13.37-22.7,13.75-26.83s-.15-4.64.55-5.01c.7-.36,126.34-74.6,188.72-55.27,0,0,4.02,1.15,2.67,2.31-1.35,1.16-17.75,17.76-11.64,39.71,6.11,21.95,33.94,42.22,71.86,28.27,37.92-13.95,75.85-27.31,73.29-65.15-2.55-37.84-3.37-70.04-27.59-94.14s-63.67-48.64-70.55-52.44c-6.88-3.8-41.54-24.89-39.56-31.09,1.97-6.21,12.16-36.39,16.7-40.24,4.54-3.84,16.17-12.68,19.33-12.91Z"/><path class="cls-21" d="m1391.97,865.15c-.14,8.98,20.28,24.52,24.12,22.92,3.84-1.6,81.89-44.41,113.98-49.86,32.09-5.45,86.98-5.54,91.05-7.65,4.06-2.1,10.34-8.22,9.72-19.91-.62-11.7.25-22.73-28.1-34.38-28.35-11.65-47.31,14.19-67.08,22.99-19.77,8.8-53.41,16.78-61.66,20.19-8.25,3.41-81.81,31.83-82.03,45.71Z"/><path class="cls-22" d="m1609.1,654.43c-2.13,1.1-3.4,3.26-3.66,5.71,0,0-8.06,4.26-10.59,5.57-2.86,1.48-3.46,5.11-2.01,7.91,1.57,3.03,5.3,4.21,8.33,2.65.16-.08,11.44-5.92,11.44-5.92,1.5.3,3.04.14,4.43-.57,3.63-1.88,4.8-6.84,2.6-11.07-2.19-4.24-6.91-6.15-10.55-4.27Z"/><path class="cls-18" d="m1394.47,922.57c-2.13,1.62,2.86,1.81,1.85,3.57-1.01,1.76-15.41,42.24-17.01,44.44-1.6,2.2,6.93,1.29,8.7-.39s20.3-54.78,20.3-54.78c0,0-4.79.29-13.83,7.16Z"/><path class="cls-8" d="m1551.2,578.58c-8.36,6.17,6.93,24.78,12.11,28.37,5.17,3.59,13.89,8.6,17.06,6.07,3.17-2.54,3.71-8.42,4.78-8.52,1.07-.1,28.24,22.14,29.65,23.32,1.85,1.54,4.62,4.09,6.67,1.36,2.06-2.73.23-4.67-1.84-6.28-2.02-1.57-28.61-23.61-32.36-27.64-3.75-4.02-26.81-23.5-36.07-16.67Z"/><path class="cls-20" d="m1560.32,852.52c38.82,18.8,52.87,68.16,25.93,102.46,0,0-212.56,57.92-207.18,38.26,1.79-6.54,46.48-116.82,113.58-137,48.46-14.58,67.66-3.72,67.66-3.72Z"/></svg>