<svg width="96" height="96" viewBox="0 0 96 96" fill="none" xmlns="http://www.w3.org/2000/svg">
<g clip-path="url(#clip0_246_23)">
<circle cx="48" cy="48" r="48" fill="#FCB72B"/>
<g clip-path="url(#clip1_246_23)">
<path fill-rule="evenodd" clip-rule="evenodd" d="M58.3111 72.5659C54.8911 72.44 45.1987 71.1005 35.048 60.9521C24.8996 50.8014 23.5625 41.1114 23.4342 37.689C23.2442 32.4735 27.239 27.4076 31.8536 25.4292C32.4093 25.1893 33.0178 25.0979 33.6195 25.1641C34.2212 25.2303 34.7953 25.4518 35.2855 25.8069C39.0855 28.5761 41.7075 32.7656 43.959 36.0597C44.4544 36.7835 44.6662 37.6642 44.5541 38.534C44.4419 39.4039 44.0137 40.202 43.351 40.7765L38.7174 44.2179C38.4935 44.3795 38.3359 44.6169 38.2739 44.886C38.2119 45.1551 38.2496 45.4375 38.3801 45.6809C39.4299 47.588 41.2966 50.4285 43.4341 52.566C45.574 54.7035 48.5475 56.6937 50.5876 57.8622C50.8434 58.0058 51.1445 58.046 51.429 57.9744C51.7135 57.9029 51.9597 57.725 52.1171 57.4775L55.1334 52.8866C55.6879 52.15 56.5059 51.6565 57.4162 51.5096C58.3264 51.3626 59.2582 51.5735 60.0164 52.0981C63.358 54.4114 67.2577 56.9882 70.1125 60.6434C70.4964 61.1371 70.7405 61.725 70.8195 62.3454C70.8985 62.9658 70.8093 63.5961 70.5614 64.1702C68.5735 68.8086 63.5432 72.7582 58.3111 72.5659Z" fill="#495567"/>
</g>
</g>
<defs>
<clipPath id="clip0_246_23">
<rect width="96" height="96" fill="white"/>
</clipPath>
<clipPath id="clip1_246_23">
<rect width="57" height="57" fill="white" transform="translate(19 20)"/>
</clipPath>
</defs>
</svg>
